<?xml version="1.0" standalone="no"?>
<!DOCTYPE svg PUBLIC "-//W3C//DTD SVG 20010904//EN"
 "http://www.w3.org/TR/2001/REC-SVG-20010904/DTD/svg10.dtd">
<svg version="1.0" xmlns="http://www.w3.org/2000/svg"
 width="640.000000pt" height="640.000000pt" viewBox="0 0 640.000000 640.000000"
 preserveAspectRatio="xMidYMid meet">

<g transform="translate(0.000000,640.000000) scale(0.100000,-0.100000)"
fill="#000000" stroke="none">
<path d="M0 3200 l0 -3200 3200 0 3200 0 0 3200 0 3200 -3200 0 -3200 0 0
-3200z m3388 1835 c202 -21 297 -38 440 -80 301 -87 609 -208 803 -315 248
-137 516 -349 662 -525 34 -40 25 -34 -44 31 -152 142 -297 241 -533 365 -368
192 -753 302 -1243 354 -240 26 -423 19 -738 -26 -632 -90 -1219 -354 -1599
-719 l-100 -95 65 79 c69 86 265 267 381 354 225 167 525 312 915 441 216 72
305 95 448 116 257 36 348 40 543 20z m-1324 -597 c-4 -7 -20 -32 -36 -55 -15
-23 -28 -44 -28 -48 0 -3 -12 -23 -26 -44 -28 -44 -45 -135 -32 -172 14 -36 1
-72 -23 -66 -12 3 -23 -1 -29 -13 -15 -28 -13 -30 35 -30 66 0 109 -22 185
-93 101 -96 305 -252 505 -386 99 -66 209 -140 245 -165 73 -51 203 -106 251
-106 17 0 46 -9 63 -20 32 -19 32 -19 61 0 17 11 44 20 61 20 52 0 150 39 233
93 383 249 618 420 766 558 86 79 124 99 190 99 48 0 50 2 35 30 -6 11 -17 16
-28 13 -23 -6 -35 28 -23 61 17 44 -5 133 -54 214 -25 42 -53 88 -63 101 -16
23 -16 24 4 13 39 -21 193 -191 220 -243 23 -46 25 -57 15 -84 -14 -41 -14
-43 8 -54 14 -8 27 -4 59 20 l40 29 45 -77 45 -78 -49 -22 c-49 -22 -57 -35
-39 -63 8 -13 17 -11 62 13 30 15 56 27 60 27 15 0 101 -134 142 -222 112
-240 157 -447 155 -713 -1 -204 -14 -219 -21 -25 -4 91 -14 202 -23 248 -31
159 -100 337 -163 421 -30 40 -100 74 -147 70 -29 -3 -38 2 -75 50 -34 43 -41
58 -33 71 8 12 6 22 -6 39 l-18 23 -36 -43 c-20 -23 -37 -49 -37 -56 0 -18
-81 -69 -144 -89 -95 -31 -381 -157 -448 -198 -180 -109 -386 -284 -426 -363
-11 -21 -32 -45 -46 -53 -30 -15 -33 -25 -11 -34 8 -3 15 -17 15 -31 0 -86
128 -194 377 -317 109 -54 128 -60 165 -55 39 5 50 1 115 -41 40 -26 73 -50
73 -53 0 -12 -131 -189 -141 -189 -5 0 -28 17 -52 38 -72 66 -248 197 -347
260 -135 84 -245 138 -332 160 -41 11 -92 31 -112 45 l-38 25 -45 -28 c-25
-16 -71 -34 -102 -41 -116 -23 -315 -133 -521 -288 -69 -51 -146 -114 -171
-138 l-47 -45 -39 53 c-80 110 -106 149 -102 152 2 2 36 24 75 49 64 41 76 45
115 41 39 -5 59 2 184 66 235 120 355 222 355 302 0 16 8 32 18 38 15 9 15 12
2 21 -8 6 -20 14 -25 18 -6 4 -23 27 -39 51 -61 94 -191 207 -387 334 -78 51
-373 186 -474 217 -63 19 -143 71 -155 101 -6 14 -26 41 -45 59 -33 32 -33 32
-45 11 -6 -12 -8 -30 -5 -41 4 -12 -7 -35 -33 -70 -37 -49 -42 -52 -90 -54
-69 -4 -110 -31 -154 -102 -105 -169 -166 -420 -169 -703 -2 -145 -16 -64 -18
99 -1 173 18 315 63 463 60 196 141 360 227 461 5 5 32 -4 64 -20 48 -25 57
-27 65 -14 20 31 -1 54 -74 83 -5 2 10 38 33 80 l43 77 40 -29 c32 -24 45 -28
59 -20 22 11 22 13 8 54 -11 28 -9 38 17 86 16 30 72 98 125 152 87 89 122
117 103 85z m866 -2736 c33 -16 70 -65 59 -76 -3 -3 -27 -10 -52 -15 -39 -7
-49 -6 -63 10 -22 25 -85 25 -107 2 -40 -45 -28 -160 18 -181 48 -22 115 -5
115 30 0 14 -8 18 -35 18 -33 0 -35 2 -35 35 l0 35 85 0 86 0 -3 -77 -3 -78
-50 -25 c-38 -19 -65 -24 -120 -24 -122 -1 -181 48 -192 159 -10 93 40 180
112 198 50 12 151 6 185 -11z m430 -164 l68 -178 -58 0 c-55 0 -59 1 -69 30
-10 29 -12 30 -75 30 -63 0 -65 0 -71 -30 -6 -29 -8 -30 -65 -30 l-59 0 24 63
c22 58 86 225 106 275 8 21 14 23 70 20 l62 -3 67 -177z m361 163 c32 -16 49
-49 49 -96 0 -75 -49 -115 -140 -115 l-50 0 0 -65 0 -65 -60 0 -60 0 0 173 c0
96 3 177 8 181 11 12 224 1 253 -13z"/>
<path d="M3207 1557 c-9 -30 -17 -57 -17 -60 0 -4 16 -7 35 -7 39 0 43 12 24
71 -18 54 -24 53 -42 -4z"/>
<path d="M3580 1601 c0 -36 3 -41 23 -41 35 0 59 22 55 51 -2 20 -9 25 -40 27
l-38 3 0 -40z"/>
</g>
</svg>
